<svg width="11" height="11" viewBox="0 0 11 11" fill="none" xmlns="http://www.w3.org/2000/svg">
<path d="M3.24414 2.57812C3.24414 1.86734 2.66587 1.28906 1.95508 1.28906C1.24429 1.28906 0.666016 1.86734 0.666016 2.57812C0.666016 3.28891 1.24429 3.86719 1.95508 3.86719C2.66587 3.86719 3.24414 3.28891 3.24414 2.57812ZM1.95508 3.22266C1.59968 3.22266 1.31055 2.93352 1.31055 2.57812C1.31055 2.22273 1.59968 1.93359 1.95508 1.93359C2.31047 1.93359 2.59961 2.22273 2.59961 2.57812C2.59961 2.93352 2.31047 3.22266 1.95508 3.22266Z" fill="white"/>
<path d="M10.334 2.57812C10.334 1.86734 9.75571 1.28906 9.04492 1.28906C8.33413 1.28906 7.75586 1.86734 7.75586 2.57812C7.75586 3.28891 8.33413 3.86719 9.04492 3.86719C9.75571 3.86719 10.334 3.28891 10.334 2.57812ZM9.04492 3.22266C8.68953 3.22266 8.40039 2.93352 8.40039 2.57812C8.40039 2.22273 8.68953 1.93359 9.04492 1.93359C9.40032 1.93359 9.68945 2.22273 9.68945 2.57812C9.68945 2.93352 9.40032 3.22266 9.04492 3.22266Z" fill="white"/>
<path d="M9.04492 3.86719C8.44953 3.86719 7.91622 4.13776 7.56123 4.56231C7.20934 3.77371 6.41786 3.22266 5.5 3.22266C4.58214 3.22266 3.79066 3.77371 3.43877 4.56231C3.08378 4.13776 2.55047 3.86719 1.95508 3.86719C0.882686 3.86719 0 4.73563 0 5.80078V7.41211C0 7.59009 0.144289 7.73438 0.322266 7.73438H0.67476L0.968365 10.7094C0.984629 10.8743 1.12333 11 1.28906 11H2.59961C2.76534 11 2.90404 10.8743 2.92031 10.7094L3.21391 7.73438H4.29006L4.5343 10.7041C4.54803 10.8713 4.68772 11 4.85547 11H6.14453C6.31228 11 6.45197 10.8713 6.4657 10.7041L6.70996 7.73438H7.78609L8.07967 10.7094C8.09596 10.8743 8.23466 11 8.40039 11H9.71094C9.87667 11 10.0154 10.8743 10.0317 10.7094L10.3252 7.73438H10.6777C10.8557 7.73438 11 7.59009 11 7.41211V5.80078C11 4.7369 10.1184 3.86719 9.04492 3.86719ZM2.92188 7.08984C2.75614 7.08984 2.61744 7.21555 2.60118 7.38046L2.30757 10.3555H1.5811L1.28749 7.38046C1.27123 7.21555 1.13253 7.08984 0.966797 7.08984H0.644531V5.80078C0.644531 5.08999 1.23243 4.51172 1.95508 4.51172C2.66587 4.51172 3.24414 5.08999 3.24414 5.80078V7.08984H2.92188ZM6.41311 7.08984C6.24536 7.08984 6.10567 7.21851 6.09194 7.3857L5.84768 10.3555H5.15232L4.90808 7.3857C4.89433 7.21854 4.75464 7.08984 4.58689 7.08984H3.88867V5.47852C3.88867 4.70037 4.44314 4.04933 5.17773 3.89961V5.47852C5.17773 5.65649 5.32202 5.80078 5.5 5.80078C5.67798 5.80078 5.82227 5.65649 5.82227 5.47852V3.89961C6.55686 4.04931 7.11133 4.70035 7.11133 5.47852V7.08984H6.41311ZM10.3555 7.08984H10.0332C9.86747 7.08984 9.72877 7.21555 9.71248 7.38046L9.4189 10.3555H8.69243L8.39884 7.38046C8.38256 7.21555 8.24386 7.08984 8.07812 7.08984H7.75586V5.80078C7.75586 5.08999 8.33413 4.51172 9.04492 4.51172C9.76757 4.51172 10.3555 5.08999 10.3555 5.80078V7.08984Z" fill="white"/>
<path d="M7.11133 1.61133C7.11133 0.722842 6.38849 0 5.5 0C4.61151 0 3.88867 0.722842 3.88867 1.61133C3.88867 2.49981 4.61151 3.22266 5.5 3.22266C6.38849 3.22266 7.11133 2.49981 7.11133 1.61133ZM5.5 2.57812C4.96691 2.57812 4.5332 2.14442 4.5332 1.61133C4.5332 1.07824 4.96691 0.644531 5.5 0.644531C6.03309 0.644531 6.4668 1.07824 6.4668 1.61133C6.4668 2.14442 6.03309 2.57812 5.5 2.57812Z" fill="white"/>
</svg>
